#!OML:ASF F:\VICON\USERDATA\INSTALL\rory3\rory3.ASF
:FULLY-SPECIFIED
:DEGREES
16
root 0.640615 18.2395 -23.2895 5.96952 4.48614 -4.36779
lowerback 13.7026 2.5286 5.80553
upperback -0.826814 4.45758 1.64879
thorax -8.28175 1.93756 -2.41218
lowerneck -19.3778 -4.8834 -1.49831
upperneck 6.11369 -6.45784 2.91553
head 5.07699 -2.97949 0.525448
rclavicle -2.05742e-014 -1.47101e-014
rhumerus -29.4602 15.592 -94.232
rradius 110.057
rwrist -11.8061
rhand -21.6485 43.2692
rfingers 7.12502
rthumb 4.7482 13.3424
lclavicle -2.05742e-014 -1.47101e-014
lhumerus -66.916 -5.33247 95.534
lradius 106.519
lwrist 28.9446
lhand -27.7313 2.60452
lfingers 7.12502
lthumb -1.1264 32.5813
rfemur 5.18649 3.26407 33.5564
rtibia 33.0161
rfoot 8.56344 -0.475011
rtoes -3.94912
lfemur -41.561 -5.53828 -15.4995
ltibia 59.7192
lfoot -8.98939 -6.36675
ltoes -9.10398
17
root 0.659575 18.3307 -22.7765 5.74553 4.60535 -3.97566
lowerback 13.2656 2.59001 5.5249
upperback -0.914754 4.46243 1.59719
thorax -8.14373 1.95597 -2.28857
lowerneck -18.0271 -4.90571 -1.73305
upperneck 5.9741 -6.46883 3.09476
head 4.83822 -2.99614 0.647084
rclavicle -1.11319e-014 -7.55382e-015
rhumerus -29.8942 15.8677 -94.3004
rradius 110.098
rwrist -11.7593
rhand -20.2438 46.1699
rfingers 7.12502
rthumb 6.10442 16.2779
lclavicle -1.11319e-014 -7.55382e-015
lhumerus -67.8487 -4.41468 95.3813
lradius 106.445
lwrist 28.5728
lhand -28.6386 2.88567
lfingers 7.12502
lthumb -2.00265 32.856
rfemur 6.81908 2.31073 32.6689
rtibia 31.9947
rfoot 12.5982 0.023169
rtoes -1.95064
lfemur -40.3868 -6.10989 -16.0136
ltibia 54.986
lfoot -8.96697 -6.99628
ltoes -7.80118
18
root 0.673963 18.4131 -22.268 5.64143 4.6355 -3.62739
lowerback 12.922 2.71076 5.25025
upperback -1.0204 4.55227 1.48749
thorax -8.06649 2.01106 -2.2516
lowerneck -17.3022 -4.9342 -1.65379
upperneck 6.0646 -6.52723 2.98316
head 4.74825 -3.0383 0.608907
rclavicle -8.94531e-015 -1.55052e-014
rhumerus -30.5241 16.392 -94.7434
rradius 109.826
rwrist -8.98153
rhand -21.2005 47.8592
rfingers 7.12502
rthumb 5.18076 17.9425
lclavicle -8.94531e-015 -1.55052e-014
lhumerus -68.5639 -3.84997 95.1813
lradius 106.424
lwrist 28.337
lhand -31.11 4.67921
lfingers 7.12502
lthumb -4.38937 34.6137
rfemur 8.08252 1.9696 31.9719
rtibia 31.3074
rfoot 17.0527 0.179366
rtoes 4.4128
lfemur -39.2255 -6.54644 -16.439
ltibia 50.1324
lfoot -8.46616 -7.80227
ltoes -6.01475
19
root 0.688432 18.4853 -21.7603 5.62461 4.73144 -3.33292
lowerback 12.5862 2.8 5.13106
upperback -1.05263 4.61787 1.32104
thorax -7.8995 2.05034 -2.35366
lowerneck -17.3806 -5.04214 -1.51767
upperneck 6.50236 -6.70722 2.91213
head 4.89472 -3.12161 0.540771
rclavicle 7.64327e-014 1.35174e-014
rhumerus -30.8318 16.2836 -94.9076
rradius 109.863
rwrist -9.30826
rhand -19.7162 48.9724
rfingers 7.12502
rthumb 6.61382 19.0957
lclavicle 7.64327e-014 1.35174e-014
lhumerus -68.9507 -3.52082 94.9126
lradius 106.344
lwrist 28.0786
lhand -34.971 7.74444
lfingers 7.12502
lthumb -8.11677 37.5686
rfemur 9.06014 1.93156 31.4807
rtibia 31.0949
rfoot 21.6132 0.0127424
rtoes 2.53626
lfemur -38.0894 -7.11828 -16.7129
ltibia 45.2627
lfoot -7.43654 -8.53163
ltoes -6.9807
20
root 0.695796 18.5434 -21.257 5.59458 4.63936 -3.22194
lowerback 12.3284 2.92624 5.00088
upperback -1.24059 4.75308 1.24605
thorax -7.94945 2.11624 -2.37484
lowerneck -16.7702 -5.1342 -1.45218
upperneck 6.77086 -6.85784 2.87339
head 4.88239 -3.20032 0.514554
rclavicle 2.22142e-014 -1.66979e-014
rhumerus -31.5074 16.3314 -95.2273
rradius 109.967
rwrist -9.56377
rhand -20.7529 44.6185
rfingers 7.12502
rthumb 5.61296 14.7128
lclavicle 2.22142e-014 -1.66979e-014
lhumerus -69.5853 -3.19365 94.6498
lradius 106.315
lwrist 27.7819
lhand -36.0412 8.15902
lfingers 7.12502
lthumb -9.14955 37.9405
rfemur 9.79276 2.337 31.3307
rtibia 31.4031
rfoot 25.1281 -0.857769
rtoes 3.09876
lfemur -36.9227 -7.56159 -16.6882
ltibia 40.4479
lfoot -5.42578 -9.22359
ltoes -6.63128
21
root 0.698054 18.5858 -20.764 5.59402 4.40012 -3.41567
lowerback 12.22 3.08993 5.03229
upperback -1.47801 4.98416 1.28153
thorax -8.12913 2.21858 -2.39716
lowerneck -16.2889 -5.18933 -1.40124
upperneck 7.03863 -6.94946 2.80021
head 4.88746 -3.25125 0.482949
rclavicle -1.18277e-014 3.97569e-016
rhumerus -32.1278 16.4708 -95.6114
rradius 110.004
rwrist -9.46259
rhand -22.2666 39.8438
rfingers 7.12502
rthumb 4.15137 9.90452
lclavicle -1.18277e-014 3.97569e-016
lhumerus -70.2718 -2.9069 94.5319
lradius 106.532
lwrist 27.3314
lhand -35.3054 7.75712
lfingers 7.12502
lthumb -8.43952 37.5685
rfemur 10.2396 3.08162 31.5997
rtibia 32.131
rfoot 27.553 -2.47179
rtoes 5.87453
lfemur -35.8709 -7.61348 -16.4155
ltibia 35.8492
lfoot -2.97763 -9.66555
ltoes -6.47151
